<svg preserveAspectRatio="none" width="100%" height="100%" overflow="visible" style="display: block;" viewBox="0 0 26 15.2" fill="none" xmlns="http://www.w3.org/2000/svg">
<g id="Container">
<path id="Icon" d="M6.2 15.2C5.21333 15.2 4.33667 15 3.57 14.6C2.80333 14.2 2.15333 13.65 1.62 12.95C1.08667 12.25 0.683333 11.44 0.41 10.52C0.136667 9.6 0 8.62667 0 7.6C0 6.56 0.136667 5.58 0.41 4.66C0.683333 3.74 1.08667 2.93 1.62 2.23C2.15333 1.53 2.80333 0.983333 3.57 0.59C4.33667 0.196667 5.21333 0 6.2 0C7.18667 0 8.06333 0.196667 8.83 0.59C9.59667 0.983333 10.2467 1.53 10.78 2.23C11.3133 2.93 11.7167 3.74 11.99 4.66C12.2633 5.58 12.4 6.56 12.4 7.6C12.4 8.62667 12.2633 9.6 11.99 10.52C11.7167 11.44 11.3133 12.25 10.78 12.95C10.2467 13.65 9.59667 14.2 8.83 14.6C8.06333 15 7.18667 15.2 6.2 15.2V15.2M6.2 12.46C7.08 12.46 7.80333 12.0533 8.37 11.24C8.93667 10.4267 9.22 9.21333 9.22 7.6C9.22 5.98667 8.93667 4.77333 8.37 3.96C7.80333 3.14667 7.08 2.74 6.2 2.74C5.32 2.74 4.59667 3.14667 4.03 3.96C3.46333 4.77333 3.18 5.98667 3.18 7.6C3.18 9.21333 3.46333 10.4267 4.03 11.24C4.59667 12.0533 5.32 12.46 6.2 12.46V12.46M19.96 0C20.9867 0 21.88 0.183333 22.64 0.55C23.4 0.916667 24.0267 1.41667 24.52 2.05C25.0133 2.68333 25.3833 3.40333 25.63 4.21C25.8767 5.01667 26 5.86 26 6.74C26 7.71333 25.8467 8.69667 25.54 9.69C25.2333 10.6833 24.76 11.5967 24.12 12.43C23.48 13.2633 22.65 13.9333 21.63 14.44C20.61 14.9467 19.3867 15.2 17.96 15.2C17.3733 15.2 16.8667 15.1633 16.44 15.09C16.0133 15.0167 15.8 14.98 15.8 14.98V12.24C15.8 12.24 15.91 12.2567 16.13 12.29C16.35 12.3233 16.6267 12.36 16.96 12.4C17.2933 12.44 17.6267 12.46 17.96 12.46C18.9867 12.46 19.8467 12.2533 20.54 11.84C21.2333 11.4267 21.7633 10.9 22.13 10.26C22.4967 9.62 22.7133 8.94667 22.78 8.24C22.6467 8.46667 22.44 8.71667 22.16 8.99C21.88 9.26333 21.5033 9.5 21.03 9.7C20.5567 9.9 19.9533 10 19.22 10C18.1667 10 17.28 9.77 16.56 9.31C15.84 8.85 15.3 8.25333 14.94 7.52C14.58 6.78667 14.4 6.02 14.4 5.22C14.4 4.58 14.5167 3.95 14.75 3.33C14.9833 2.71 15.33 2.15 15.79 1.65C16.25 1.15 16.8267 0.75 17.52 0.45C18.2133 0.15 19.0267 0 19.96 0V0M19.96 2.54C19.2133 2.54 18.6 2.78 18.12 3.26C17.64 3.74 17.4 4.35333 17.4 5.1C17.4 5.86 17.64 6.47667 18.12 6.95C18.6 7.42333 19.2133 7.66 19.96 7.66C20.6933 7.66 21.3 7.42333 21.78 6.95C22.26 6.47667 22.5 5.86 22.5 5.1C22.5 4.35333 22.26 3.74 21.78 3.26C21.3 2.78 20.6933 2.54 19.96 2.54V2.54" fill="var(--fill-0, #BC0100)"/>
</g>
</svg>
