<svg preserveAspectRatio="none" width="100%" height="100%" overflow="visible" style="display: block;" viewBox="0 0 54 54" fill="none" xmlns="http://www.w3.org/2000/svg">
<g id="Background">
<rect x="12" y="2" width="30.3333" height="29.5" rx="4" fill="var(--fill-0, #BC0100)"/>
<g id="Overlay+Shadow" filter="url(#filter0_dd_173_202)">
<rect x="12" y="2" width="30" height="30" rx="4" fill="var(--fill-0, white)" fill-opacity="0.01" shape-rendering="crispEdges"/>
</g>
<path id="Icon" d="M24.3333 25.5L22.75 22.8333L19.75 22.1667L20.0417 19.0833L18 16.75L20.0417 14.4167L19.75 11.3333L22.75 10.6667L24.3333 8L27.1667 9.20833L30 8L31.5833 10.6667L34.5833 11.3333L34.2917 14.4167L36.3333 16.75L34.2917 19.0833L34.5833 22.1667L31.5833 22.8333L30 25.5L27.1667 24.2917L24.3333 25.5V25.5M26.2917 19.7083L31 15L29.8333 13.7917L26.2917 17.3333L24.5 15.5833L23.3333 16.75L26.2917 19.7083V19.7083" fill="var(--fill-0, white)"/>
</g>
<defs>
<filter id="filter0_dd_173_202" x="0" y="0" width="54" height="54" filterUnits="userSpaceOnUse" color-interpolation-filters="sRGB">
<feFlood flood-opacity="0" result="BackgroundImageFix"/>
<feColorMatrix in="SourceAlpha" type="matrix" values="0 0 0 0 0 0 0 0 0 0 0 0 0 0 0 0 0 0 127 0" result="hardAlpha"/>
<feMorphology radius="4" operator="erode" in="SourceAlpha" result="effect1_dropShadow_173_202"/>
<feOffset dy="4"/>
<feGaussianBlur stdDeviation="3"/>
<feComposite in2="hardAlpha" operator="out"/>
<feColorMatrix type="matrix" values="0 0 0 0 0 0 0 0 0 0 0 0 0 0 0 0 0 0 0.1 0"/>
<feBlend mode="normal" in2="BackgroundImageFix" result="effect1_dropShadow_173_202"/>
<feColorMatrix in="SourceAlpha" type="matrix" values="0 0 0 0 0 0 0 0 0 0 0 0 0 0 0 0 0 0 127 0" result="hardAlpha"/>
<feMorphology radius="3" operator="erode" in="SourceAlpha" result="effect2_dropShadow_173_202"/>
<feOffset dy="10"/>
<feGaussianBlur stdDeviation="7.5"/>
<feComposite in2="hardAlpha" operator="out"/>
<feColorMatrix type="matrix" values="0 0 0 0 0 0 0 0 0 0 0 0 0 0 0 0 0 0 0.1 0"/>
<feBlend mode="normal" in2="effect1_dropShadow_173_202" result="effect2_dropShadow_173_202"/>
<feBlend mode="normal" in="SourceGraphic" in2="effect2_dropShadow_173_202" result="shape"/>
</filter>
</defs>
</svg>
