<svg preserveAspectRatio="none" width="100%" height="100%" overflow="visible" style="display: block;" viewBox="0 0 15.8333 14.3269" fill="none" xmlns="http://www.w3.org/2000/svg">
<g id="Container">
<path id="Icon" d="M12.0513 14.3269H3.6859V5.16026L8.91026 0L9.27886 0.368594C9.35471 0.444449 9.41855 0.541671 9.47036 0.66026C9.52218 0.778851 9.54809 0.887826 9.54809 0.987185V1.1186L8.69552 5.16026H14.4872C14.8355 5.16026 15.1469 5.29755 15.4215 5.57212C15.6961 5.84669 15.8333 6.15813 15.8333 6.50642V7.53206C15.8333 7.60792 15.8248 7.69072 15.8077 7.78046C15.7906 7.8702 15.7682 7.953 15.7404 8.02886L13.4648 13.4231C13.3504 13.6795 13.1581 13.8942 12.8878 14.0673C12.6175 14.2404 12.3387 14.3269 12.0513 14.3269V14.3269M4.51924 13.4936H12.0513C12.1688 13.4936 12.289 13.4615 12.4119 13.3974C12.5347 13.3333 12.6282 13.2265 12.6923 13.0769L15 7.66027V6.50642C15 6.35684 14.9519 6.23398 14.8558 6.13783C14.7596 6.04168 14.6368 5.9936 14.4872 5.9936H7.66026L8.625 1.44232L4.51924 5.51603V13.4936V13.4936M4.51924 5.51603V5.51603V5.9936V5.9936C4.51924 5.9936 4.51924 6.04168 4.51924 6.13783C4.51924 6.23398 4.51924 6.35684 4.51924 6.50642V7.66027V13.0769C4.51924 13.2265 4.51924 13.3333 4.51924 13.3974C4.51924 13.4615 4.51924 13.4936 4.51924 13.4936V13.4936V5.51603V5.51603M3.6859 5.16026V5.9936H0.833338V13.4936H3.6859V14.3269H0V5.16026H3.6859V5.16026" fill="var(--fill-0, white)" fill-opacity="0.6"/>
</g>
</svg>
