<svg preserveAspectRatio="none" width="100%" height="100%" overflow="visible" style="display: block;" viewBox="0 0 15.8333 14.3269" fill="none" xmlns="http://www.w3.org/2000/svg">
<g id="Container">
<path id="Icon" d="M3.78205 0H12.1474V9.16668L6.92308 14.3269L6.55449 13.9583C6.47863 13.8825 6.4148 13.7853 6.36298 13.6667C6.31116 13.5481 6.28526 13.4391 6.28526 13.3398V13.2083L7.13782 9.16668H1.34616C0.997865 9.16668 0.686433 9.02939 0.41186 8.75482C0.137287 8.48024 0 8.16881 0 7.82052V6.79488C0 6.71902 0.00854704 6.63622 0.0256411 6.54648C0.0427352 6.45673 0.0651711 6.37394 0.0929489 6.29808L2.36859 0.903847C2.48291 0.647436 2.67522 0.432693 2.94551 0.259616C3.21581 0.0865385 3.49466 0 3.78205 0V0M11.3141 0.833338H3.78205C3.66453 0.833338 3.54434 0.86539 3.42148 0.929492C3.29862 0.993594 3.20513 1.10043 3.14103 1.25L0.833338 6.66667V7.82052C0.833338 7.97009 0.881415 8.09296 0.977568 8.18911C1.07372 8.28526 1.19658 8.33334 1.34616 8.33334H8.17308L7.20834 12.8846L11.3141 8.81091V0.833338V0.833338M11.3141 8.81091V8.81091V8.33334V8.33334C11.3141 8.33334 11.3141 8.28526 11.3141 8.18911C11.3141 8.09296 11.3141 7.97009 11.3141 7.82052V6.66667V1.25C11.3141 1.10043 11.3141 0.993594 11.3141 0.929492C11.3141 0.86539 11.3141 0.833338 11.3141 0.833338V0.833338V8.81091V8.81091M12.1474 9.16668V8.33334H15V0.833338H12.1474V0H15.8333V9.16668H12.1474V9.16668" fill="var(--fill-0, white)" fill-opacity="0.6"/>
</g>
</svg>
