<svg preserveAspectRatio="none" width="100%" height="100%" overflow="visible" style="display: block;" viewBox="0 0 26 15.2" fill="none" xmlns="http://www.w3.org/2000/svg">
<g id="Container">
<path id="Icon" d="M6.2 15.2C5.21333 15.2 4.33667 15 3.57 14.6C2.80333 14.2 2.15333 13.65 1.62 12.95C1.08667 12.25 0.683333 11.44 0.41 10.52C0.136667 9.6 0 8.62667 0 7.6C0 6.56 0.136667 5.58 0.41 4.66C0.683333 3.74 1.08667 2.93 1.62 2.23C2.15333 1.53 2.80333 0.983333 3.57 0.59C4.33667 0.196667 5.21333 0 6.2 0C7.18667 0 8.06333 0.196667 8.83 0.59C9.59667 0.983333 10.2467 1.53 10.78 2.23C11.3133 2.93 11.7167 3.74 11.99 4.66C12.2633 5.58 12.4 6.56 12.4 7.6C12.4 8.62667 12.2633 9.6 11.99 10.52C11.7167 11.44 11.3133 12.25 10.78 12.95C10.2467 13.65 9.59667 14.2 8.83 14.6C8.06333 15 7.18667 15.2 6.2 15.2V15.2M6.2 12.46C7.08 12.46 7.80333 12.0533 8.37 11.24C8.93667 10.4267 9.22 9.21333 9.22 7.6C9.22 5.98667 8.93667 4.77333 8.37 3.96C7.80333 3.14667 7.08 2.74 6.2 2.74C5.32 2.74 4.59667 3.14667 4.03 3.96C3.46333 4.77333 3.18 5.98667 3.18 7.6C3.18 9.21333 3.46333 10.4267 4.03 11.24C4.59667 12.0533 5.32 12.46 6.2 12.46V12.46M20.44 15.2C19.4133 15.2 18.52 15.0167 17.76 14.65C17 14.2833 16.37 13.7833 15.87 13.15C15.37 12.5167 15 11.7967 14.76 10.99C14.52 10.1833 14.4 9.34 14.4 8.46C14.4 7.48667 14.55 6.50333 14.85 5.51C15.15 4.51667 15.6233 3.60333 16.27 2.77C16.9167 1.93667 17.7467 1.26667 18.76 0.76C19.7733 0.253333 21 0 22.44 0C23.0267 0 23.5333 0.0366667 23.96 0.11C24.3867 0.183333 24.6 0.22 24.6 0.22V2.96C24.6 2.96 24.49 2.94333 24.27 2.91C24.05 2.87667 23.7733 2.84 23.44 2.8C23.1067 2.76 22.7733 2.74 22.44 2.74C21.4133 2.74 20.5533 2.94667 19.86 3.36C19.1667 3.77333 18.6367 4.3 18.27 4.94C17.9033 5.58 17.6867 6.25333 17.62 6.96C17.7533 6.73333 17.96 6.48333 18.24 6.21C18.52 5.93667 18.8967 5.7 19.37 5.5C19.8433 5.3 20.44 5.2 21.16 5.2C22.2267 5.2 23.12 5.43 23.84 5.89C24.56 6.35 25.1 6.94667 25.46 7.68C25.82 8.41333 26 9.18 26 9.98C26 10.62 25.8833 11.25 25.65 11.87C25.4167 12.49 25.07 13.05 24.61 13.55C24.15 14.05 23.5733 14.45 22.88 14.75C22.1867 15.05 21.3733 15.2 20.44 15.2V15.2M20.44 12.66C21.1867 12.66 21.8 12.42 22.28 11.94C22.76 11.46 23 10.8467 23 10.1C23 9.34 22.76 8.72333 22.28 8.25C21.8 7.77667 21.1867 7.54 20.44 7.54C19.7067 7.54 19.0967 7.77667 18.61 8.25C18.1233 8.72333 17.88 9.34 17.88 10.1C17.88 10.8467 18.1233 11.46 18.61 11.94C19.0967 12.42 19.7067 12.66 20.44 12.66V12.66" fill="var(--fill-0, #BC0100)"/>
</g>
</svg>
