<svg preserveAspectRatio="none" width="100%" height="100%" overflow="visible" style="display: block;" viewBox="0 0 51.5 45.25" fill="none" xmlns="http://www.w3.org/2000/svg">
<g id="Overlay">
<rect width="51.5" height="45.25" rx="4" fill="var(--fill-0, #BC0100)" fill-opacity="0.05"/>
<path id="Icon" d="M14.5 33.25C13.8125 33.25 13.224 33.0052 12.7344 32.5156C12.2448 32.026 12 31.4375 12 30.75C12 30.0625 12.2448 29.474 12.7344 28.9844C13.224 28.4948 13.8125 28.25 14.5 28.25C14.625 28.25 14.7344 28.25 14.8281 28.25C14.9219 28.25 15.0208 28.2708 15.125 28.3125L20.8125 22.625C20.7708 22.5208 20.75 22.4219 20.75 22.3281C20.75 22.2344 20.75 22.125 20.75 22C20.75 21.3125 20.9948 20.724 21.4844 20.2344C21.974 19.7448 22.5625 19.5 23.25 19.5C23.9375 19.5 24.526 19.7448 25.0156 20.2344C25.5052 20.724 25.75 21.3125 25.75 22C25.75 22.0417 25.7292 22.25 25.6875 22.625L28.875 25.8125C28.9792 25.7708 29.0781 25.75 29.1719 25.75C29.2656 25.75 29.375 25.75 29.5 25.75C29.625 25.75 29.7344 25.75 29.8281 25.75C29.9219 25.75 30.0208 25.7708 30.125 25.8125L34.5625 21.375C34.5208 21.2708 34.5 21.1719 34.5 21.0781C34.5 20.9844 34.5 20.875 34.5 20.75C34.5 20.0625 34.7448 19.474 35.2344 18.9844C35.724 18.4948 36.3125 18.25 37 18.25C37.6875 18.25 38.276 18.4948 38.7656 18.9844C39.2552 19.474 39.5 20.0625 39.5 20.75C39.5 21.4375 39.2552 22.026 38.7656 22.5156C38.276 23.0052 37.6875 23.25 37 23.25C36.875 23.25 36.7656 23.25 36.6719 23.25C36.5781 23.25 36.4792 23.2292 36.375 23.1875L31.9375 27.625C31.9792 27.7292 32 27.8281 32 27.9219C32 28.0156 32 28.125 32 28.25C32 28.9375 31.7552 29.526 31.2656 30.0156C30.776 30.5052 30.1875 30.75 29.5 30.75C28.8125 30.75 28.224 30.5052 27.7344 30.0156C27.2448 29.526 27 28.9375 27 28.25C27 28.125 27 28.0156 27 27.9219C27 27.8281 27.0208 27.7292 27.0625 27.625L23.875 24.4375C23.7708 24.4792 23.6719 24.5 23.5781 24.5C23.4844 24.5 23.375 24.5 23.25 24.5C23.2083 24.5 23 24.4792 22.625 24.4375L16.9375 30.125C16.9792 30.2292 17 30.3281 17 30.4219C17 30.5156 17 30.625 17 30.75C17 31.4375 16.7552 32.026 16.2656 32.5156C15.776 33.0052 15.1875 33.25 14.5 33.25V33.25M15.75 20.7188L14.9688 19.0312L13.2812 18.25L14.9688 17.4688L15.75 15.7812L16.5312 17.4688L18.2188 18.25L16.5312 19.0312L15.75 20.7188V20.7188M29.5 19.5L28.3125 16.9375L25.75 15.75L28.3125 14.5625L29.5 12L30.6875 14.5625L33.25 15.75L30.6875 16.9375L29.5 19.5V19.5" fill="var(--fill-0, #BC0100)"/>
</g>
</svg>
