<svg preserveAspectRatio="none" width="100%" height="100%" overflow="visible" style="display: block;" viewBox="0 0 51.5 50.25" fill="none" xmlns="http://www.w3.org/2000/svg">
<g id="Overlay">
<rect width="51.5" height="50.25" rx="4" fill="var(--fill-0, #BC0100)" fill-opacity="0.05"/>
<path id="Icon" d="M21.5 38.25L19.125 34.25L14.625 33.25L15.0625 28.625L12 25.125L15.0625 21.625L14.625 17L19.125 16L21.5 12L25.75 13.8125L30 12L32.375 16L36.875 17L36.4375 21.625L39.5 25.125L36.4375 28.625L36.875 33.25L32.375 34.25L30 38.25L25.75 36.4375L21.5 38.25V38.25M24.4375 29.5625L31.5 22.5L29.75 20.6875L24.4375 26L21.75 23.375L20 25.125L24.4375 29.5625V29.5625" fill="var(--fill-0, #BC0100)"/>
</g>
</svg>
