<svg preserveAspectRatio="none" width="100%" height="100%" overflow="visible" style="display: block;" viewBox="0 0 12.8205 12.5321" fill="none" xmlns="http://www.w3.org/2000/svg">
<g id="Container">
<path id="Icon" d="M8.14103 12.5321V11.6571C9.29488 11.2532 10.2244 10.5588 10.9295 9.57373C11.6346 8.58868 11.9872 7.48612 11.9872 6.26603C11.9872 5.04595 11.6346 3.94338 10.9295 2.95834C10.2244 1.9733 9.29488 1.27885 8.14103 0.875005V0C9.52138 0.442307 10.6464 1.23638 11.516 2.38221C12.3857 3.52805 12.8205 4.82265 12.8205 6.26603C12.8205 7.70941 12.3857 9.00402 11.516 10.1499C10.6464 11.2957 9.52138 12.0898 8.14103 12.5321V12.5321M0 7.95354V4.62019H2.85257L5.83334 1.63942V10.9343L2.85257 7.95354H0V7.95354M8.14103 9.04328V3.48878C8.61219 3.79434 8.97036 4.19658 9.21555 4.69552C9.46075 5.19445 9.58334 5.7249 9.58334 6.28687C9.58334 6.84563 9.45808 7.36833 9.20754 7.85498C8.95701 8.34162 8.6015 8.73772 8.14103 9.04328V9.04328M5.00001 3.66187L3.20834 5.45353H0.833338V7.1202H3.20834L5.00001 8.91187V3.66187V3.66187M2.91667 6.28687V6.28687V6.28687V6.28687V6.28687V6.28687V6.28687V6.28687" fill="var(--fill-0, white)" fill-opacity="0.6"/>
</g>
</svg>
