<svg preserveAspectRatio="none" width="100%" height="100%" overflow="visible" style="display: block;" viewBox="0 0 15 11.6667" fill="none" xmlns="http://www.w3.org/2000/svg">
<g id="Container">
<path id="Icon" d="M1.34616 11.6667C0.962608 11.6667 0.642362 11.5382 0.385417 11.2813C0.128472 11.0243 0 10.7041 0 10.3205V1.34616C0 0.962608 0.128472 0.642362 0.385417 0.385417C0.642362 0.128472 0.962608 0 1.34616 0H13.6539C14.0374 0 14.3576 0.128472 14.6146 0.385417C14.8715 0.642362 15 0.962608 15 1.34616V10.3205C15 10.7041 14.8715 11.0243 14.6146 11.2813C14.3576 11.5382 14.0374 11.6667 13.6539 11.6667H1.34616V11.6667M1.34616 10.8333H13.6539C13.7821 10.8333 13.8996 10.7799 14.0064 10.6731C14.1133 10.5662 14.1667 10.4487 14.1667 10.3205V1.34616C14.1667 1.21795 14.1133 1.10043 14.0064 0.993594C13.8996 0.886757 13.7821 0.833338 13.6539 0.833338H1.34616C1.21795 0.833338 1.10043 0.886757 0.993594 0.993594C0.886757 1.10043 0.833338 1.21795 0.833338 1.34616V10.3205C0.833338 10.4487 0.886757 10.5662 0.993594 10.6731C1.10043 10.7799 1.21795 10.8333 1.34616 10.8333V10.8333M0.833338 10.8333C0.833338 10.8333 0.833338 10.7799 0.833338 10.6731C0.833338 10.5662 0.833338 10.4487 0.833338 10.3205V1.34616C0.833338 1.21795 0.833338 1.10043 0.833338 0.993594C0.833338 0.886757 0.833338 0.833338 0.833338 0.833338V0.833338C0.833338 0.833338 0.833338 0.886757 0.833338 0.993594C0.833338 1.10043 0.833338 1.21795 0.833338 1.34616V10.3205C0.833338 10.4487 0.833338 10.5662 0.833338 10.6731C0.833338 10.7799 0.833338 10.8333 0.833338 10.8333V10.8333V10.8333M6.92308 9.96795H13.3333V5.22436H6.92308V9.96795V9.96795M7.75642 9.13462V6.0577H12.5V9.13462H7.75642V9.13462" fill="var(--fill-0, white)" fill-opacity="0.7"/>
</g>
</svg>
