<svg preserveAspectRatio="none" width="100%" height="100%" overflow="visible" style="display: block;" viewBox="0 0 13.3333 11.6667" fill="none" xmlns="http://www.w3.org/2000/svg">
<g id="Container">
<path id="Icon" d="M1.34616 11.6667C0.962608 11.6667 0.642362 11.5382 0.385417 11.2813C0.128472 11.0243 0 10.7041 0 10.3205V1.34616C0 0.962608 0.128472 0.642362 0.385417 0.385417C0.642362 0.128472 0.962608 0 1.34616 0H11.9872C12.3707 0 12.691 0.128472 12.9479 0.385417C13.2049 0.642362 13.3333 0.962608 13.3333 1.34616V10.3205C13.3333 10.7041 13.2049 11.0243 12.9479 11.2813C12.691 11.5382 12.3707 11.6667 11.9872 11.6667H1.34616V11.6667M1.34616 10.8333H11.9872C12.1154 10.8333 12.2329 10.7799 12.3397 10.6731C12.4466 10.5662 12.5 10.4487 12.5 10.3205V1.34616C12.5 1.21795 12.4466 1.10043 12.3397 0.993594C12.2329 0.886757 12.1154 0.833338 11.9872 0.833338H1.34616C1.21795 0.833338 1.10043 0.886757 0.993594 0.993594C0.886757 1.10043 0.833338 1.21795 0.833338 1.34616V10.3205C0.833338 10.4487 0.886757 10.5662 0.993594 10.6731C1.10043 10.7799 1.21795 10.8333 1.34616 10.8333V10.8333M3.14103 8.07693H5.00001C5.2468 8.07693 5.45807 7.98906 5.63382 7.81331C5.80957 7.63756 5.89744 7.42629 5.89744 7.17949V6.85898H5.16026V7.08334C5.16026 7.14744 5.13355 7.2062 5.08013 7.25962C5.02671 7.31304 4.96795 7.33975 4.90385 7.33975H3.23718C3.17308 7.33975 3.11432 7.31304 3.0609 7.25962C3.00748 7.2062 2.98077 7.14744 2.98077 7.08334V4.58334C2.98077 4.51924 3.00748 4.46048 3.0609 4.40706C3.11432 4.35364 3.17308 4.32693 3.23718 4.32693H4.90385C4.96795 4.32693 5.02671 4.35364 5.08013 4.40706C5.13355 4.46048 5.16026 4.51924 5.16026 4.58334V4.83975H5.89744V4.48718C5.89744 4.24039 5.80957 4.02912 5.63382 3.85337C5.45807 3.67762 5.2468 3.58975 5.00001 3.58975H3.14103C2.89423 3.58975 2.68296 3.67762 2.50721 3.85337C2.33147 4.02912 2.24359 4.24039 2.24359 4.48718V7.17949C2.24359 7.42629 2.33147 7.63756 2.50721 7.81331C2.68296 7.98906 2.89423 8.07693 3.14103 8.07693V8.07693M8.33334 8.07693H10.1923C10.4391 8.07693 10.6504 7.98906 10.8261 7.81331C11.0019 7.63756 11.0898 7.42629 11.0898 7.17949V6.85898H10.3526V7.08334C10.3526 7.14744 10.3259 7.2062 10.2724 7.25962C10.219 7.31304 10.1603 7.33975 10.0962 7.33975H8.42949C8.36539 7.33975 8.30663 7.31304 8.25321 7.25962C8.19979 7.2062 8.17309 7.14744 8.17309 7.08334V4.58334C8.17309 4.51924 8.19979 4.46048 8.25321 4.40706C8.30663 4.35364 8.36539 4.32693 8.42949 4.32693H10.0962C10.1603 4.32693 10.219 4.35364 10.2724 4.40706C10.3259 4.46048 10.3526 4.51924 10.3526 4.58334V4.83975H11.0898V4.48718C11.0898 4.24039 11.0019 4.02912 10.8261 3.85337C10.6504 3.67762 10.4391 3.58975 10.1923 3.58975H8.33334C8.08654 3.58975 7.87527 3.67762 7.69952 3.85337C7.52378 4.02912 7.4359 4.24039 7.4359 4.48718V7.17949C7.4359 7.42629 7.52378 7.63756 7.69952 7.81331C7.87527 7.98906 8.08654 8.07693 8.33334 8.07693V8.07693M0.833338 10.8333C0.833338 10.8333 0.833338 10.7799 0.833338 10.6731C0.833338 10.5662 0.833338 10.4487 0.833338 10.3205V1.34616C0.833338 1.21795 0.833338 1.10043 0.833338 0.993594C0.833338 0.886757 0.833338 0.833338 0.833338 0.833338V0.833338C0.833338 0.833338 0.833338 0.886757 0.833338 0.993594C0.833338 1.10043 0.833338 1.21795 0.833338 1.34616V10.3205C0.833338 10.4487 0.833338 10.5662 0.833338 10.6731C0.833338 10.7799 0.833338 10.8333 0.833338 10.8333V10.8333V10.8333" fill="var(--fill-0, white)" fill-opacity="0.7"/>
</g>
</svg>
