<svg preserveAspectRatio="none" width="100%" height="100%" overflow="visible" style="display: block;" viewBox="0 0 49 44" fill="none" xmlns="http://www.w3.org/2000/svg">
<g id="Overlay">
<rect width="49" height="44" rx="4" fill="var(--fill-0, #BC0100)" fill-opacity="0.05"/>
<path id="Icon" d="M32 23.25V20.75H37V23.25H32V23.25M33.5 32L29.5 29L31 27L35 30L33.5 32V32M31 17L29.5 15L33.5 12L35 14L31 17V17M15.75 30.75V25.75H14.5C13.8125 25.75 13.224 25.5052 12.7344 25.0156C12.2448 24.526 12 23.9375 12 23.25V20.75C12 20.0625 12.2448 19.474 12.7344 18.9844C13.224 18.4948 13.8125 18.25 14.5 18.25H19.5L25.75 14.5V29.5L19.5 25.75H18.25V30.75H15.75V30.75M27 26.1875V17.8125C27.5625 18.3125 28.0156 18.9219 28.3594 19.6406C28.7031 20.3594 28.875 21.1458 28.875 22C28.875 22.8542 28.7031 23.6406 28.3594 24.3594C28.0156 25.0781 27.5625 25.6875 27 26.1875V26.1875" fill="var(--fill-0, #BC0100)"/>
</g>
</svg>
