<svg preserveAspectRatio="none" width="100%" height="100%" overflow="visible" style="display: block;" viewBox="0 0 20 20" fill="none" xmlns="http://www.w3.org/2000/svg">
<g id="Container">
<path id="Icon" d="M6 7V5H15V7H6V7M6 10V8H15V10H6V10M9 18H3C2.71667 18 2.47917 18 2.2875 18C2.09583 18 2 18 2 18V18H9V18V18V18M9 20H3C2.16667 20 1.45833 19.7083 0.875 19.125C0.291667 18.5417 0 17.8333 0 17V14H3V0H18V9.025C17.6667 8.99167 17.3292 9.00417 16.9875 9.0625C16.6458 9.12083 16.3167 9.225 16 9.375V2H5V14H11L9 16H2V17C2 17.2833 2.09583 17.5208 2.2875 17.7125C2.47917 17.9042 2.71667 18 3 18H9V20V20M11 20V16.925L16.525 11.425C16.675 11.275 16.8417 11.1667 17.025 11.1C17.2083 11.0333 17.3917 11 17.575 11C17.775 11 17.9667 11.0375 18.15 11.1125C18.3333 11.1875 18.5 11.3 18.65 11.45L19.575 12.375C19.7083 12.525 19.8125 12.6917 19.8875 12.875C19.9625 13.0583 20 13.2417 20 13.425C20 13.6083 19.9667 13.7958 19.9 13.9875C19.8333 14.1792 19.725 14.35 19.575 14.5L14.075 20H11V20M18.5 13.425V13.425L17.575 12.5V12.5L18.5 13.425V13.425M12.5 18.5H13.45L16.475 15.45L16.025 14.975L15.55 14.525L12.5 17.55V18.5V18.5M16.025 14.975L15.55 14.525V14.525L16.475 15.45V15.45L16.025 14.975V14.975" fill="var(--fill-0, #BC0100)"/>
</g>
</svg>
